<?xml version="1.0" encoding="utf-8"?>
<!-- Svg Vector Icons : http://www.onlinewebfonts.com/icon -->
<!DOCTYPE svg PUBLIC "-//W3C//DTD SVG 1.1//EN" "http://www.w3.org/Graphics/SVG/1.1/DTD/svg11.dtd">
<svg version="1.1" xmlns="http://www.w3.org/2000/svg" xmlns:xlink="http://www.w3.org/1999/xlink" x="0px" y="0px" viewBox="0 0 1000 1000" enable-background="new 0 0 1000 1000" xml:space="preserve">
<metadata> Svg Vector Icons : http://www.onlinewebfonts.com/icon </metadata>
<g><g transform="translate(0.000000,512.000000) scale(0.100000,-0.100000)"><path d="M4606.9,5011.2c-433.4-44.1-886-176.4-1286.9-372.1c-1198.6-583-2002.2-1741.4-2136.4-3076.2c-9.6-109.3-19.2-387.4-19.2-619.5v-420l47.9-46c24.9-26.8,59.5-47.9,76.7-47.9c24.9,0,28.8-268.5,28.8-2610.1v-2610.1l377.8,7.7c362.5,5.8,383.6,7.7,487.1,55.6c136.2,63.3,239.7,166.8,303,303l49.9,107.4l5.8,1331c5.8,1461.4,7.7,1440.3-109.3,1612.9c-32.6,47.9-88.2,107.4-126.6,134.2l-65.2,47.9l-1.9,807.4v805.5l67.1,32.6c38.4,19.2,69,49.9,74.8,74.8c5.8,24.9,13.4,268.5,19.2,542.7c5.8,448.8,11.5,519.7,55.6,700c188,788.2,686.6,1415.3,1403.8,1766.3c734.5,358.6,1547.7,358.6,2282.2,0c525.5-257,928.2-654,1191-1175.6c99.7-197.5,157.3-358.6,212.9-590.7c44.1-182.2,49.9-253.2,57.5-719.2c5.8-283.8,19.2-533.1,28.8-552.3c9.6-19.2,44.1-44.1,74.8-55.6l55.6-19.2v-807.4v-809.3l-67.1-46c-36.4-24.9-92.1-84.4-124.7-132.3c-118.9-178.3-117-153.4-111.2-1616.7l5.8-1331l49.9-105.5c71-153.4,138.1-220.5,281.9-291.5l126.6-63.3l379.7-5.8l379.7-7.7v2608.2V425.8l57.5,23c32.6,13.4,67.1,40.3,76.7,59.5c24.9,46,24.9,805.5,0,1054.8c-136.2,1352.1-955.1,2516.2-2180.5,3099.2C6016.4,4957.5,5287.7,5082.2,4606.9,5011.2z M1931.5-337.5v-767.1h-153.4h-153.4v767.1v767.1h153.4h153.4V-337.5z M8375.3-337.5v-767.1h-153.4h-153.4v767.1v767.1h153.4h153.4V-337.5z"/><path d="M819.2-1167.9c-329.9-111.2-563.8-354.8-682.7-703.8c-34.5-97.8-36.4-178.4-36.4-1074c0-895.6,1.9-976.2,36.4-1074c88.2-260.8,235.9-452.6,456.4-594.5c105.5-69,322.2-153.4,391.2-153.4c23,0,26.8,276.2,26.8,1821.9c0,1722.2-1.9,1821.9-32.6,1821.9C959.2-1123.8,888.2-1144.9,819.2-1167.9z"/><path d="M8989-2945.7c0-1545.7,3.8-1821.9,26.9-1821.9c69,0,283.8,84.4,389.3,151.5c212.9,138.1,368.2,333.7,450.7,573.4c44.1,128.5,44.1,134.2,44.1,1097c0,895.6-1.9,976.2-36.4,1074c-92.1,272.3-272.3,496.7-496.7,621.4c-109.3,61.4-293.4,126.6-352.9,126.6C8992.9-1123.8,8989-1449.9,8989-2945.7z"/></g></g>
</svg>